HIERARCHY
ROOT joint_Root
{
	OFFSET 0.0 0.0 0.0
	CHANNELS 6 Xposition Yposition Zposition Zrotation Xrotation Yrotation 
	JOINT Hips
	{
		OFFSET 4.5925 91.4895 -427.239
		CHANNELS 6 Xposition Yposition Zposition Zrotation Xrotation Yrotation 
		JOINT Spine
		{
			OFFSET 15.7357 0.0 0.0
			CHANNELS 6 Xposition Yposition Zposition Zrotation Xrotation Yrotation 
			JOINT Chest
			{
				OFFSET 8.98455 -0.406207 0.0
				CHANNELS 6 Xposition Yposition Zposition Zrotation Xrotation Yrotation 
				JOINT Neck
				{
					OFFSET 16.3773 0.0 0.0
					CHANNELS 6 Xposition Yposition Zposition Zrotation Xrotation Yrotation 
					JOINT Head
					{
						OFFSET 6.45672 0.0 0.0
						CHANNELS 6 Xposition Yposition Zposition Zrotation Xrotation Yrotation 
						End Site
						{
							OFFSET 0.0 0.0 0.0
						}
					}
				}
				JOINT Shoulder_L
				{
					OFFSET 12.9942 -0.242716 4.98039
					CHANNELS 6 Xposition Yposition Zposition Zrotation Xrotation Yrotation 
					JOINT UpperArm_L
					{
						OFFSET 5.34809 0.0 0.0
						CHANNELS 6 Xposition Yposition Zposition Zrotation Xrotation Yrotation 
						JOINT LowerArm_L
						{
							OFFSET 24.3286 1.87007e-05 0.0
							CHANNELS 6 Xposition Yposition Zposition Zrotation Xrotation Yrotation 
							JOINT Hand_L
							{
								OFFSET 22.2916 0.0 0.0
								CHANNELS 6 Xposition Yposition Zposition Zrotation Xrotation Yrotation 
								End Site
								{
									OFFSET 0.0 0.0 0.0
								}
							}
						}
					}
				}
				JOINT Shoulder_R
				{
					OFFSET 12.9945 -0.242716 -4.98039
					CHANNELS 6 Xposition Yposition Zposition Zrotation Xrotation Yrotation 
					JOINT UpperArm_R
					{
						OFFSET -5.34813 0.0 0.0
						CHANNELS 6 Xposition Yposition Zposition Zrotation Xrotation Yrotation 
						JOINT LowerArm_R
						{
							OFFSET -24.3289 0.000322201 0.0
							CHANNELS 6 Xposition Yposition Zposition Zrotation Xrotation Yrotation 
							JOINT Hand_R
							{
								OFFSET -22.2915 -0.000108084 0.0
								CHANNELS 6 Xposition Yposition Zposition Zrotation Xrotation Yrotation 
								End Site
								{
									OFFSET 0.0 0.0 0.0
								}
							}
						}
					}
				}
			}
		}
		JOINT UpperLeg_L
		{
			OFFSET -2.19248 -6.46944 0.0
			CHANNELS 6 Xposition Yposition Zposition Zrotation Xrotation Yrotation 
			JOINT LowerLeg_L
			{
				OFFSET 39.0811 0.0 -1.23785e-05
				CHANNELS 6 Xposition Yposition Zposition Zrotation Xrotation Yrotation 
				JOINT Foot_L
				{
					OFFSET 40.9854 0.0 -1.26872e-05
					CHANNELS 6 Xposition Yposition Zposition Zrotation Xrotation Yrotation 
					JOINT Toes_L
					{
						OFFSET 11.7543 0.0 0.0
						CHANNELS 6 Xposition Yposition Zposition Zrotation Xrotation Yrotation 
						End Site
						{
							OFFSET 0.0 0.0 0.0
						}
					}
				}
			}
		}
		JOINT UpperLeg_R
		{
			OFFSET -2.19251 6.46944 0.0
			CHANNELS 6 Xposition Yposition Zposition Zrotation Xrotation Yrotation 
			JOINT LowerLeg_R
			{
				OFFSET -39.0811 -0.00228153 -0.0401928
				CHANNELS 6 Xposition Yposition Zposition Zrotation Xrotation Yrotation 
				JOINT Foot_R
				{
					OFFSET -40.9854 0.0 0.0
					CHANNELS 6 Xposition Yposition Zposition Zrotation Xrotation Yrotation 
					JOINT Toes_R
					{
						OFFSET -11.7543 0.0 0.0
						CHANNELS 6 Xposition Yposition Zposition Zrotation Xrotation Yrotation 
						End Site
						{
							OFFSET 0.0 0.0 0.0
						}
					}
				}
			}
		}
	}
}
MOTION
Frames:	4
Frame Time:	0.0333333
0.000000 0.000000 0.000000 0.000000 0.000000 -0.000000 -2.457430 91.051800 -6.411770 88.750800 -1.585400 7.112020 15.735700 0.000005 -0.000001 87.814100 75.748500 -88.302600 8.984550 -0.406207 -0.000000 20.714300 -1.116100 -0.776618 16.377300 -0.000001 -0.000001 7.607090 -2.924270 1.886890 6.456720 -0.000001 -0.000000 -15.529200 -2.912630 3.035630 12.994200 -0.242716 4.980390 -91.009300 4.729420 -77.939400 5.348090 -0.000007 -0.000001 -61.793000 26.168000 -31.930000 24.328600 0.000019 0.000005 13.695000 26.169800 -28.921700 22.291600 -0.000001 0.000005 9.932960 5.196730 2.801070 12.994500 -0.242716 -4.980390 88.981200 7.689840 -82.430000 -5.348130 -0.000001 -0.000004 -61.251000 27.466900 -28.679400 -24.328900 0.000322 -0.000009 7.007380 9.631720 -36.306700 -22.291500 -0.000108 -0.000004 20.177100 5.386300 -2.497190 -2.192480 -6.469440 -0.000000 -174.542000 -11.658400 -8.778160 39.081100 -0.000007 -0.000012 -0.108992 0.178586 31.396200 40.985400 -0.000006 -0.000013 -0.217610 6.001440 -65.339100 11.754300 -0.000000 0.000003 -0.000244 -0.002188 -16.659600 -2.192510 6.469440 -0.000001 178.772000 21.977500 172.759000 -39.081100 -0.002282 -0.040193 -0.146509 0.256974 30.241400 -40.985400 0.000008 0.000006 5.314930 13.992800 -66.551300 -11.754300 -0.000006 -0.000006 -0.001900 -0.027457 -17.689600
0.000000 0.000000 0.000000 0.000000 0.000000 -0.000000 -2.455960 91.047500 -6.468110 88.743000 -1.596630 7.133090 15.735700 0.000005 -0.000001 87.883600 75.762800 -88.373600 8.984550 -0.406207 -0.000000 20.686900 -1.081430 -0.786027 16.377300 -0.000001 -0.000001 7.784360 -2.887240 1.904410 6.456720 -0.000001 -0.000000 -15.625100 -2.933490 3.044010 12.994200 -0.242716 4.980390 -90.976200 4.580330 -77.955700 5.348090 -0.000007 -0.000001 -61.977600 25.566000 -31.974000 24.328600 0.000019 0.000005 14.250100 26.463000 -29.679700 22.291600 -0.000001 0.000005 9.874640 5.196340 2.811230 12.994500 -0.242716 -4.980390 88.992800 7.610740 -82.438900 -5.348130 -0.000001 -0.000004 -61.482500 26.843900 -28.627500 -24.328900 0.000322 -0.000009 7.219360 9.450200 -37.654500 -22.291500 -0.000108 -0.000004 20.670100 5.391810 -2.673120 -2.192480 -6.469440 -0.000000 -174.535000 -11.626100 -8.809340 39.081100 -0.000007 -0.000012 -0.112969 0.184926 31.420400 40.985400 -0.000006 -0.000013 -0.222528 5.983620 -65.312000 11.754300 -0.000000 0.000003 -0.000253 -0.002253 -16.662000 -2.192510 6.469440 -0.000001 178.788000 21.977400 172.727000 -39.081100 -0.002282 -0.040193 -0.146856 0.257358 30.261800 -40.985400 0.000008 0.000006 5.324920 13.997300 -66.522200 -11.754300 -0.000006 -0.000006 -0.002016 -0.028923 -17.749200
0.000000 0.000000 0.000000 0.000000 0.000000 -0.000000 -2.463150 91.041500 -6.511690 88.724900 -1.576930 7.212770 15.735700 0.000005 -0.000001 87.869400 75.764500 -88.354700 8.984550 -0.406207 -0.000000 20.683400 -1.087660 -0.775556 16.377300 -0.000001 -0.000001 7.973760 -2.853710 1.913240 6.456720 -0.000001 -0.000000 -15.713100 -2.924020 3.051410 12.994200 -0.242716 4.980390 -90.949800 4.443430 -77.921500 5.348090 -0.000007 -0.000001 -61.879700 25.176000 -32.054000 24.328600 0.000019 0.000005 14.893400 26.481200 -30.813600 22.291600 -0.000001 0.000005 10.004000 5.199340 2.735800 12.994500 -0.242716 -4.980390 89.006000 7.525300 -82.453500 -5.348130 -0.000001 -0.000004 -61.694600 26.188800 -28.604500 -24.328900 0.000322 -0.000009 7.659570 9.532440 -39.083500 -22.291500 -0.000108 -0.000004 20.847200 5.393380 -2.723570 -2.192480 -6.469440 -0.000000 -174.501000 -11.592000 -8.780100 39.081100 -0.000007 -0.000012 -0.112734 0.184272 31.457800 40.985400 -0.000006 -0.000013 -0.228304 5.979360 -65.298700 11.754300 -0.000000 0.000003 -0.000279 -0.002446 -16.668900 -2.192510 6.469440 -0.000001 178.790000 22.000800 172.774000 -39.081100 -0.002282 -0.040193 -0.146067 0.255796 30.282300 -40.985400 0.000008 0.000006 5.332110 13.971800 -66.507500 -11.754300 -0.000006 -0.000006 -0.001952 -0.028110 -17.716100
0.000000 0.000000 0.000000 0.000000 0.000000 -0.000000 -2.464580 91.030900 -6.554870 88.732400 -1.535100 7.244030 15.735700 0.000005 -0.000001 87.863300 75.770100 -88.349000 8.984550 -0.406207 -0.000000 20.672100 -1.090220 -0.776002 16.377300 -0.000001 -0.000001 8.112180 -2.858230 1.968720 6.456720 -0.000001 -0.000000 -15.820500 -2.920230 3.024880 12.994200 -0.242716 4.980390 -90.911200 4.280590 -77.971100 5.348090 -0.000007 -0.000001 -61.890000 24.554800 -31.968700 24.328600 0.000019 0.000005 15.717000 26.221300 -32.493200 22.291600 -0.000001 0.000005 9.986540 5.205510 2.580660 12.994500 -0.242716 -4.980390 89.008600 7.439160 -82.387100 -5.348130 -0.000001 -0.000004 -61.850200 25.547200 -28.676200 -24.328900 0.000322 -0.000009 8.117460 9.592150 -40.566000 -22.291500 -0.000108 -0.000004 21.128100 5.397900 -2.869390 -2.192480 -6.469440 -0.000000 -174.515000 -11.579800 -8.822990 39.081100 -0.000007 -0.000012 -0.112175 0.182993 31.508500 40.985400 -0.000006 -0.000013 -0.215728 5.994350 -65.279500 11.754300 -0.000000 0.000003 -0.000244 -0.002188 -16.659600 -2.192510 6.469440 -0.000001 178.779000 22.011300 172.744000 -39.081100 -0.002282 -0.040193 -0.147434 0.257482 30.345700 -40.985400 0.000008 0.000006 5.341030 13.964600 -66.510600 -11.754300 -0.000006 -0.000006 -0.001949 -0.028071 -17.714500
